<svg width="972" height="633" viewBox="0 0 972 633" fill="none" xmlns="http://www.w3.org/2000/svg">
<g filter="url(#filter0_d_199_3351)">
<rect x="104.297" y="57.5378" width="135" height="150" rx="12" transform="rotate(-10.4724 104.297 57.5378)" fill="white"/>
<rect x="146.227" y="67.0752" width="56" height="56" rx="28" transform="rotate(-10.4724 146.227 67.0752)" fill="#3498DB" fill-opacity="0.2"/>
<path d="M186.118 75.2099L189.613 77.6148L171.576 103.829L168.081 101.424L186.118 75.2099ZM169.291 79.0821C171.74 78.6296 174.081 80.2409 174.534 82.6894C174.986 85.1379 173.375 87.4797 170.927 87.9322C168.478 88.3847 166.136 86.7734 165.684 84.3249C165.231 81.8763 166.843 79.5345 169.291 79.0821ZM186.767 91.1065C189.216 90.654 191.557 92.2653 192.01 94.7138C192.462 97.1624 190.851 99.5042 188.403 99.9567C185.954 100.409 183.612 98.7979 183.16 96.3493C182.707 93.9008 184.319 91.559 186.767 91.1065ZM169.836 82.0321C169.025 82.182 168.484 82.9685 168.634 83.7797C168.784 84.591 169.57 85.1321 170.381 84.9822C171.193 84.8322 171.734 84.0458 171.584 83.2346C171.434 82.4233 170.647 81.8822 169.836 82.0321ZM187.312 94.0566C186.501 94.2065 185.96 94.9929 186.11 95.8042C186.26 96.6154 187.046 97.1565 187.857 97.0066C188.669 96.8567 189.21 96.0703 189.06 95.259C188.91 94.4477 188.124 93.9066 187.312 94.0566Z" fill="#3498DB"/>
<path d="M157.018 147.453C156.516 144.738 158.311 142.129 161.026 141.628L214.127 131.812C216.842 131.311 219.45 133.105 219.952 135.82V135.82C220.454 138.536 218.66 141.144 215.944 141.646L162.844 151.461C160.128 151.963 157.52 150.169 157.018 147.453V147.453Z" fill="#EEEEEE"/>
<path d="M138.072 168.751C137.821 167.393 138.718 166.089 140.076 165.838L242.343 146.935C243.701 146.684 245.005 147.581 245.256 148.939V148.939C245.507 150.297 244.61 151.601 243.252 151.852L140.984 170.755C139.627 171.006 138.323 170.109 138.072 168.751V168.751Z" fill="#EEEEEE"/>
<path d="M140.798 183.501C140.547 182.144 141.444 180.84 142.802 180.589L245.07 161.685C246.427 161.434 247.732 162.332 247.982 163.689V163.689C248.233 165.047 247.336 166.351 245.979 166.602L143.711 185.505C142.353 185.756 141.049 184.859 140.798 183.501V183.501Z" fill="#EEEEEE"/>
</g>
<g filter="url(#filter1_d_199_3351)">
<rect x="-3" y="503.387" width="245" height="110" rx="12" transform="rotate(-18.65 -3 503.387)" fill="white"/>
<path d="M36.3177 532.332C35.4346 529.716 36.8398 526.879 39.4562 525.996L133.258 494.337C135.874 493.454 138.711 494.859 139.594 497.476V497.476C140.477 500.092 139.072 502.929 136.456 503.812L42.6541 535.471C40.0376 536.354 37.2007 534.949 36.3177 532.332V532.332Z" fill="#EEEEEE"/>
<path d="M41.9167 548.913C41.4751 547.605 42.1777 546.187 43.4859 545.745L142.025 512.487C143.333 512.046 144.751 512.748 145.193 514.057V514.057C145.635 515.365 144.932 516.783 143.624 517.225L45.0848 550.483C43.7766 550.924 42.3582 550.222 41.9167 548.913V548.913Z" fill="#EEEEEE"/>
<path d="M46.7135 563.126C46.272 561.818 46.9746 560.399 48.2828 559.958L104.185 541.09C105.493 540.649 106.911 541.351 107.353 542.659V542.659C107.794 543.968 107.092 545.386 105.784 545.828L49.8817 564.695C48.5735 565.137 47.1551 564.434 46.7135 563.126V563.126Z" fill="#EEEEEE"/>
<rect x="158.18" y="477.484" width="56" height="56" rx="28" transform="rotate(-18.65 158.18 477.484)" fill="#F2994A" fill-opacity="0.2"/>
<g clip-path="url(#clip0_199_3351)">
<path d="M199.632 479.756L199.985 480.802C202.358 480.514 204.853 482.329 205.822 485.2L207.452 490.03C207.632 490.564 207.429 491.114 206.996 491.26C206.564 491.406 206.069 491.092 205.889 490.557L204.259 485.727C203.651 483.928 202.144 482.749 200.651 482.775L203.545 491.349C203.725 491.883 203.522 492.432 203.089 492.578C202.657 492.724 202.162 492.41 201.982 491.876L199.088 483.302C197.885 484.186 197.4 486.038 198.007 487.837L199.637 492.667C199.818 493.202 199.614 493.751 199.182 493.897C198.751 494.043 198.255 493.729 198.075 493.195L196.444 488.364C195.475 485.493 196.36 482.538 198.422 481.329L198.069 480.283C197.889 479.75 198.092 479.199 198.525 479.054C198.957 478.908 199.452 479.222 199.632 479.756Z" fill="#F39C12"/>
</g>
<path fill-rule="evenodd" clip-rule="evenodd" d="M188.604 510.472L188.674 510.678C188.824 511.122 188.791 511.608 188.583 512.028C188.375 512.448 188.008 512.768 187.564 512.918L185.053 513.766C184.608 513.915 184.123 513.883 183.703 513.675C183.283 513.467 182.963 513.1 182.813 512.656L179.706 503.451C179.556 503.007 179.589 502.521 179.797 502.101C180.005 501.681 180.371 501.361 180.815 501.211L183.327 500.363C183.704 500.236 184.113 500.239 184.488 500.373C184.863 500.507 185.181 500.764 185.392 501.102C186.366 500.328 187.501 499.415 187.836 499.101C188.12 498.834 188.491 498.651 188.808 498.523C189.136 498.394 189.472 498.287 189.814 498.203C190.197 498.107 190.584 498.028 190.974 497.968L190.994 497.965L191 497.964L191.003 497.963L191.019 497.961L197.044 497.327L197.082 497.327L197.093 497.327L197.135 497.326C197.401 497.315 197.666 497.295 197.93 497.265C198.447 497.208 199.087 497.101 199.652 496.91C200.174 496.734 200.781 496.746 201.248 497.178C201.649 497.548 201.759 498.067 201.784 498.443C201.813 498.912 201.726 499.445 201.551 499.932C201.909 499.639 202.297 499.304 202.713 498.943L202.802 498.867C203.972 497.85 205.36 496.645 206.702 495.93C208.236 495.113 209.616 495.304 210.505 496.169C211.296 496.939 211.598 498.198 211.128 499.176C211.01 499.422 210.801 499.709 210.586 499.98C210.356 500.271 210.066 500.609 209.741 500.974C208.991 501.804 208.222 502.618 207.435 503.414C205.789 505.092 204.039 506.774 203.459 507.239C202.787 507.778 201.972 508.083 201.167 508.309C200.679 508.441 200.188 508.561 199.695 508.671C199.334 508.752 198.975 508.838 198.616 508.928C196.96 509.35 195.588 509.374 194.326 509.396L194.172 509.399C192.867 509.423 191.658 509.461 190.185 509.893C189.849 509.991 189.195 510.24 188.604 510.471L188.604 510.472ZM189.044 500.39C189.09 500.347 189.22 500.263 189.469 500.162C189.702 500.068 189.976 499.985 190.248 499.916C190.574 499.834 190.904 499.767 191.236 499.716L191.239 499.715L197.153 499.092L197.195 499.091C197.506 499.079 197.816 499.056 198.125 499.022C198.651 498.964 199.347 498.854 200.022 498.647C200.017 498.829 199.988 499.009 199.937 499.183C199.868 499.422 199.772 499.621 199.681 499.748C199.417 500.115 199.171 500.314 199.015 500.416C198.962 500.452 198.906 500.483 198.849 500.51L198.83 500.516L194.323 501.977L194.724 503.692L194.595 502.818L194.724 503.692L194.772 503.686L194.907 503.665L195.401 503.59C195.815 503.527 196.382 503.438 196.999 503.336C198.213 503.135 199.669 502.875 200.472 502.657C201.028 502.507 201.604 502.126 202.127 501.73C202.671 501.318 203.269 500.8 203.871 500.278C205.11 499.203 206.371 498.109 207.533 497.49C208.537 496.955 209.047 497.216 209.272 497.435C209.596 497.751 209.633 498.209 209.535 498.412C209.511 498.462 209.416 498.612 209.201 498.883C209.001 499.135 208.737 499.445 208.423 499.796C207.691 500.606 206.941 501.399 206.174 502.176C204.515 503.868 202.836 505.472 202.352 505.861C201.961 506.176 201.42 506.402 200.689 506.608C200.257 506.726 199.822 506.833 199.384 506.928C198.981 507.019 198.579 507.114 198.179 507.215C196.726 507.586 195.534 507.607 194.255 507.63L194.139 507.632C192.816 507.656 191.403 507.694 189.689 508.197C189.302 508.311 188.632 508.563 188.038 508.795L186.032 502.85C187.066 502.032 188.596 500.811 189.044 500.39V500.39ZM191.128 498.838L191.003 497.964L191.128 498.838ZM183.892 502.037L181.38 502.885L184.487 512.09L186.999 511.242L183.892 502.038L183.892 502.037Z" fill="#F39C12"/>
</g>
<g filter="url(#filter2_d_199_3351)">
<rect x="700.867" y="86.9043" width="245" height="110" rx="12" transform="rotate(10.24 700.867 86.9043)" fill="white"/>
<path d="M721.306 131.245C721.797 128.527 724.398 126.722 727.116 127.213L824.539 144.813C827.256 145.304 829.061 147.905 828.57 150.622V150.622C828.079 153.339 825.478 155.144 822.761 154.653L725.338 137.054C722.621 136.563 720.816 133.962 721.306 131.245V131.245Z" fill="#EEEEEE"/>
<path d="M718.196 148.466C718.442 147.107 719.742 146.205 721.101 146.45L812.619 162.983C813.978 163.229 814.881 164.529 814.635 165.888V165.888C814.39 167.246 813.089 168.149 811.731 167.903L720.212 151.371C718.853 151.125 717.951 149.825 718.196 148.466V148.466Z" fill="#EEEEEE"/>
<path d="M715.532 163.227C715.778 161.869 717.078 160.966 718.437 161.212L776.497 171.7C777.856 171.946 778.758 173.246 778.513 174.605V174.605C778.267 175.963 776.967 176.866 775.608 176.62L717.548 166.132C716.189 165.886 715.287 164.586 715.532 163.227V163.227Z" fill="#EEEEEE"/>
<rect x="854.5" y="142.095" width="56" height="56" rx="28" transform="rotate(10.24 854.5 142.095)" fill="#3498DB" fill-opacity="0.2"/>
<path d="M882.129 164.87L874.35 163.465C871.605 162.969 870.737 164.229 870.091 165.866L867.756 171.617L885.469 174.817L885.295 168.612C885.232 166.848 884.875 165.366 882.129 164.87Z" stroke="#3498DB" stroke-width="1.8" stroke-linecap="round" stroke-linejoin="round"/>
<path d="M885.888 184.969C885.771 186.289 884.535 187.224 883.207 186.984L881.125 186.608C879.93 186.392 879.861 185.846 879.751 185.186L879.65 184.482C879.503 183.526 879.408 182.868 877.814 182.58L872.145 181.556C870.551 181.268 870.19 181.919 869.76 182.695L869.419 183.32C869.097 183.917 868.844 184.39 867.634 184.171L865.552 183.795C864.224 183.555 863.379 182.244 863.746 180.969L865.585 174.335C866.048 172.696 866.604 171.394 869.512 171.92L883.638 174.471C886.546 174.997 886.611 176.411 886.472 178.108L885.888 184.969Z" stroke="#3498DB" stroke-width="1.8" stroke-linecap="round" stroke-linejoin="round"/>
<path d="M868.341 168.293L867.234 168.093" stroke="#3498DB" stroke-width="1.8" stroke-linecap="round" stroke-linejoin="round"/>
<path d="M887.162 171.693L886.055 171.493" stroke="#3498DB" stroke-width="1.8" stroke-linecap="round" stroke-linejoin="round"/>
<path d="M869.156 176.443L872.477 177.043" stroke="#3498DB" stroke-width="1.8" stroke-linecap="round" stroke-linejoin="round"/>
<path d="M879.117 178.243L882.438 178.843" stroke="#3498DB" stroke-width="1.8" stroke-linecap="round" stroke-linejoin="round"/>
</g>
<g filter="url(#filter3_d_199_3351)">
<rect x="806.969" y="403.706" width="135" height="150" rx="12" fill="white"/>
<rect x="846.469" y="420.706" width="56" height="56" rx="28" fill="#F2994A" fill-opacity="0.2"/>
<path d="M884.016 437.674C880.764 436.623 877.264 436.623 874.012 437.674C872.425 438.261 871.552 439.145 871.552 440.156V444.433C870.935 444.379 870.411 444.356 869.918 444.356C868.218 444.327 866.525 444.593 864.916 445.143C863.339 445.747 862.469 446.635 862.469 447.639V457.213C862.469 458.214 863.339 459.105 864.916 459.695C868.168 460.745 871.668 460.745 874.919 459.695C876.217 459.202 877.03 458.531 877.284 457.747C877.854 457.803 878.427 457.829 879.001 457.827C880.701 457.857 882.393 457.59 884.002 457.04C885.583 456.449 886.453 455.565 886.453 454.555V440.143C886.476 439.145 885.596 438.264 884.016 437.674ZM877.37 454.211C877.877 454.261 878.414 454.284 879.004 454.284C880.704 454.315 882.396 454.05 884.006 453.5C884.337 453.378 884.658 453.231 884.966 453.06V454.578C884.966 455.202 882.702 456.346 879.007 456.346C878.462 456.348 877.917 456.322 877.374 456.269L877.37 454.211ZM879.004 452.783C878.459 452.785 877.913 452.759 877.37 452.706V450.651C877.877 450.701 878.414 450.725 879.004 450.725C880.704 450.754 882.397 450.488 884.006 449.937C884.338 449.818 884.659 449.671 884.966 449.497V451.005C884.963 451.632 882.699 452.786 879.004 452.786V452.783ZM879.004 449.23C878.459 449.233 877.913 449.209 877.37 449.157V447.639C877.37 447.454 877.339 447.27 877.28 447.095C877.874 447.148 878.441 447.175 879.004 447.175C880.704 447.205 882.397 446.938 884.006 446.388C884.337 446.266 884.658 446.118 884.966 445.947V447.455C884.963 448.059 882.859 449.233 879.004 449.233V449.23ZM884.963 442.201V443.892C884.963 444.496 882.859 445.67 879.004 445.67C875.306 445.67 873.045 444.52 873.045 443.892V442.201C873.353 442.372 873.673 442.519 874.002 442.641C875.612 443.19 877.304 443.455 879.004 443.425C880.704 443.456 882.396 443.191 884.006 442.641C884.335 442.519 884.655 442.372 884.963 442.201V442.201ZM879.004 441.937C875.306 441.937 873.045 440.783 873.045 440.156C873.045 439.529 875.306 438.364 879.004 438.364C882.702 438.364 884.963 439.515 884.963 440.143C884.963 440.77 882.699 441.937 879.004 441.937ZM875.88 456.153V457.24C875.88 457.867 873.616 459.018 869.921 459.018C866.227 459.018 863.963 457.881 863.963 457.24V456.153C864.27 456.324 864.59 456.471 864.92 456.593C868.171 457.643 871.671 457.643 874.923 456.593C875.252 456.47 875.572 456.323 875.88 456.153V456.153ZM869.921 455.879C866.227 455.879 863.963 454.725 863.963 454.097V453.023C864.27 453.194 864.59 453.342 864.92 453.464C868.171 454.513 871.671 454.513 874.923 453.464C875.253 453.342 875.572 453.194 875.88 453.023V454.108C875.88 454.711 873.776 455.879 869.921 455.879ZM869.921 452.75C866.227 452.75 863.963 451.595 863.963 450.968V449.684C864.27 449.855 864.59 450.002 864.92 450.124C868.172 451.171 871.67 451.171 874.923 450.124C875.253 450.002 875.572 449.855 875.88 449.684V450.978C875.88 451.582 873.776 452.76 869.921 452.76V452.75ZM869.921 449.414C866.227 449.414 863.963 448.263 863.963 447.635C863.963 447.008 866.227 445.844 869.921 445.844C870.671 445.839 871.42 445.89 872.162 445.997C872.183 446.002 872.204 446.002 872.225 445.997C874.609 446.331 875.893 447.162 875.893 447.622C875.88 448.243 873.776 449.417 869.921 449.417V449.414Z" fill="#F2994A"/>
<path d="M842.469 501.706C842.469 498.945 844.707 496.706 847.469 496.706H901.469C904.23 496.706 906.469 498.945 906.469 501.706V501.706C906.469 504.468 904.23 506.706 901.469 506.706H847.469C844.707 506.706 842.469 504.468 842.469 501.706V501.706Z" fill="#EEEEEE"/>
<path d="M819.969 519.206C819.969 517.826 821.088 516.706 822.469 516.706H926.469C927.849 516.706 928.969 517.826 928.969 519.206V519.206C928.969 520.587 927.849 521.706 926.469 521.706H822.469C821.088 521.706 819.969 520.587 819.969 519.206V519.206Z" fill="#EEEEEE"/>
<path d="M819.969 534.206C819.969 532.826 821.088 531.706 822.469 531.706H926.469C927.849 531.706 928.969 532.826 928.969 534.206V534.206C928.969 535.587 927.849 536.706 926.469 536.706H822.469C821.088 536.706 819.969 535.587 819.969 534.206V534.206Z" fill="#EEEEEE"/>
</g>
<defs>
<filter id="filter0_d_199_3351" x="51.4469" y="-1.85" width="265.716" height="277.739" filterUnits="userSpaceOnUse" color-interpolation-filters="sRGB">
<feFlood flood-opacity="0" result="BackgroundImageFix"/>
<feColorMatrix in="SourceAlpha" type="matrix" values="0 0 0 0 0 0 0 0 0 0 0 0 0 0 0 0 0 0 127 0" result="hardAlpha"/>
<feOffset dy="18"/>
<feGaussianBlur stdDeviation="26.425"/>
<feComposite in2="hardAlpha" operator="out"/>
<feColorMatrix type="matrix" values="0 0 0 0 0.843137 0 0 0 0 0.976471 0 0 0 0 0.920471 0 0 0 0.5 0"/>
<feBlend mode="normal" in2="BackgroundImageFix" result="effect1_dropShadow_199_3351"/>
<feBlend mode="normal" in="SourceGraphic" in2="effect1_dropShadow_199_3351" result="shape"/>
</filter>
<filter id="filter1_d_199_3351" x="-55.85" y="390.189" width="373.012" height="288.272" filterUnits="userSpaceOnUse" color-interpolation-filters="sRGB">
<feFlood flood-opacity="0" result="BackgroundImageFix"/>
<feColorMatrix in="SourceAlpha" type="matrix" values="0 0 0 0 0 0 0 0 0 0 0 0 0 0 0 0 0 0 127 0" result="hardAlpha"/>
<feOffset dy="18"/>
<feGaussianBlur stdDeviation="26.425"/>
<feComposite in2="hardAlpha" operator="out"/>
<feColorMatrix type="matrix" values="0 0 0 0 0.843137 0 0 0 0 0.976471 0 0 0 0 0.920471 0 0 0 0.5 0"/>
<feBlend mode="normal" in2="BackgroundImageFix" result="effect1_dropShadow_199_3351"/>
<feBlend mode="normal" in="SourceGraphic" in2="effect1_dropShadow_199_3351" result="shape"/>
</filter>
<filter id="filter2_d_199_3351" x="628.463" y="52.0543" width="366.348" height="257.502" filterUnits="userSpaceOnUse" color-interpolation-filters="sRGB">
<feFlood flood-opacity="0" result="BackgroundImageFix"/>
<feColorMatrix in="SourceAlpha" type="matrix" values="0 0 0 0 0 0 0 0 0 0 0 0 0 0 0 0 0 0 127 0" result="hardAlpha"/>
<feOffset dy="18"/>
<feGaussianBlur stdDeviation="26.425"/>
<feComposite in2="hardAlpha" operator="out"/>
<feColorMatrix type="matrix" values="0 0 0 0 0.843137 0 0 0 0 0.976471 0 0 0 0 0.920471 0 0 0 0.5 0"/>
<feBlend mode="normal" in2="BackgroundImageFix" result="effect1_dropShadow_199_3351"/>
<feBlend mode="normal" in="SourceGraphic" in2="effect1_dropShadow_199_3351" result="shape"/>
</filter>
<filter id="filter3_d_199_3351" x="754.119" y="368.856" width="240.7" height="255.7" filterUnits="userSpaceOnUse" color-interpolation-filters="sRGB">
<feFlood flood-opacity="0" result="BackgroundImageFix"/>
<feColorMatrix in="SourceAlpha" type="matrix" values="0 0 0 0 0 0 0 0 0 0 0 0 0 0 0 0 0 0 127 0" result="hardAlpha"/>
<feOffset dy="18"/>
<feGaussianBlur stdDeviation="26.425"/>
<feComposite in2="hardAlpha" operator="out"/>
<feColorMatrix type="matrix" values="0 0 0 0 0.843137 0 0 0 0 0.976471 0 0 0 0 0.920471 0 0 0 0.5 0"/>
<feBlend mode="normal" in2="BackgroundImageFix" result="effect1_dropShadow_199_3351"/>
<feBlend mode="normal" in="SourceGraphic" in2="effect1_dropShadow_199_3351" result="shape"/>
</filter>
<clipPath id="clip0_199_3351">
<rect width="12.3711" height="17.673" fill="white" transform="translate(192.227 479.744) rotate(-18.65)"/>
</clipPath>
</defs>
</svg>
