<svg width="50" height="50" viewBox="0 0 50 50" fill="none" xmlns="http://www.w3.org/2000/svg">
<rect width="50" height="50" rx="25" fill="#CEFBFF"/>
<path d="M32 20H18C17.4477 20 17 20.4477 17 21V34C17 34.5523 17.4477 35 18 35H32C32.5523 35 33 34.5523 33 34V21C33 20.4477 32.5523 20 32 20Z" stroke="#00A5B4" stroke-width="1.8" stroke-linecap="round" stroke-linejoin="round"/>
<path d="M21.5 22V18.5C21.5 18.0404 21.5905 17.5852 21.7664 17.1606C21.9423 16.736 22.2001 16.3501 22.5251 16.0251C22.8501 15.7001 23.236 15.4423 23.6606 15.2664C24.0852 15.0905 24.5404 15 25 15C25.4596 15 25.9148 15.0905 26.3394 15.2664C26.764 15.4423 27.1499 15.7001 27.4749 16.0251C27.7999 16.3501 28.0577 16.736 28.2336 17.1606C28.4095 17.5852 28.5 18.0404 28.5 18.5V22" stroke="#00A5B4" stroke-width="1.8" stroke-linecap="round" stroke-linejoin="round"/>
</svg>
