<svg width="37" height="36" viewBox="0 0 37 36" fill="none" xmlns="http://www.w3.org/2000/svg">
<rect x="0.5" width="36" height="36" rx="18" fill="#CCF0D0"/>
<path d="M20.964 12C22.394 12 23.743 12.613 24.763 13.726L26.238 12.374C24.834 10.843 22.961 10 20.964 10C18.966 10 17.094 10.843 15.692 12.375C14.9936 13.1386 14.4493 14.0299 14.089 15H11.5V17H13.614C13.576 17.33 13.55 17.663 13.55 18C13.55 18.337 13.576 18.67 13.614 19H11.5V21H14.089C14.451 21.97 14.99 22.861 15.692 23.626C17.094 25.157 18.966 26 20.964 26C22.961 26 24.834 25.157 26.237 23.626L24.762 22.274C23.743 23.387 22.394 24 20.964 24C19.534 24 18.186 23.388 17.166 22.274C16.8236 21.8887 16.5328 21.4604 16.301 21H20.5V19H15.639C15.589 18.672 15.55 18.34 15.55 18C15.55 17.66 15.589 17.328 15.639 17H20.5V15H16.301C16.541 14.543 16.817 14.107 17.166 13.726C18.186 12.613 19.534 12 20.964 12Z" fill="#00B412"/>
</svg>
