<svg width="175" height="36" viewBox="0 0 175 36" fill="none" xmlns="http://www.w3.org/2000/svg">
<path d="M30.8618 0C31.8463 0.442019 32.0432 1.22783 32.0432 2.25921C31.994 5.99181 32.0432 9.72442 31.994 13.457C31.994 15.6671 31.2556 16.1583 29.2865 15.0286C25.9392 13.1623 22.641 11.296 19.2936 9.33151C17.423 8.25102 17.423 7.46521 19.2936 6.38472C22.9856 4.22374 26.7268 2.11187 30.4188 0C30.5664 0 30.7141 0 30.8618 0Z" fill="white"/>
<path d="M0 17.6316C3.88889 14.9794 8.07314 12.8676 12.1589 10.5592C13.4388 9.82255 14.2264 10.461 14.2264 11.9344C14.2264 16.0108 14.2264 20.0872 14.2264 24.1636C14.2264 25.637 13.4388 26.2755 12.1589 25.5388C8.07314 23.2305 3.83966 21.1186 0 18.4174C0 18.1718 0 17.9262 0 17.6316Z" fill="white"/>
<path d="M31.9946 28.24C31.9946 30.2536 32.0438 32.2672 31.9946 34.2318C31.9453 35.9016 31.1085 36.3928 29.6317 35.5578C26.0874 33.5933 22.5923 31.5797 19.0972 29.566C17.522 28.6329 17.522 27.7488 19.1465 26.8157C22.5923 24.802 26.0382 22.8375 29.484 20.9221C31.2069 19.9889 31.9453 20.431 31.9946 22.4446C32.0438 24.36 31.9946 26.3245 31.9946 28.24Z" fill="white"/>
<path d="M17.2791 10.2153C17.6729 10.4118 18.1652 10.6082 18.6082 10.8538C21.9556 12.7692 25.2538 14.6355 28.552 16.5509C30.4226 17.6314 30.4226 18.4664 28.6012 19.5468C25.2538 21.5114 21.8572 23.4268 18.4606 25.2931C16.6392 26.3245 15.9008 25.8825 15.8516 23.7706C15.8516 19.8906 15.8516 16.0598 15.8516 12.1799C15.9008 11.2467 15.9992 10.4609 17.2791 10.2153Z" fill="white"/>
<path d="M48.4938 7.6124C51.3489 7.56328 53.4164 8.39821 55.0901 10.1172C55.5824 10.6083 56.813 11.1486 55.4839 12.1308C54.6471 12.7693 54.1056 13.2604 53.0718 12.1308C51.3489 10.1663 48.6907 9.72427 46.4263 10.7065C44.0142 11.6888 42.5866 13.948 42.6851 16.6001C42.7835 19.2031 43.9649 21.2168 46.5739 22.1499C48.986 23.034 51.3489 22.7884 53.0226 20.7256C54.0564 19.4978 54.7455 19.9889 55.5824 20.7747C56.7638 21.8061 55.4347 22.3464 54.9917 22.8375C52.3334 25.5878 47.6569 26.079 44.1126 24.0653C40.6175 22.1008 38.8946 17.9262 39.9776 14.0953C41.1098 10.1172 44.6049 7.56328 48.4938 7.6124Z" fill="white"/>
<path d="M173.375 19.547C174.655 19.5961 174.999 19.0559 174.999 17.9263C174.999 14.8812 172.981 12.4256 170.028 12.0327C166.877 11.6398 164.12 13.0641 162.89 15.7653C161.659 18.4665 162.397 21.708 164.613 23.6234C166.877 25.5879 170.52 25.7844 173.08 24.1145C173.67 23.7216 174.704 23.6234 173.966 22.3956C173.277 21.3151 172.833 21.3642 171.8 22.0027C169.141 23.5252 166.532 22.592 165.302 19.547C168.108 19.4979 170.717 19.4488 173.375 19.547ZM167.271 17.2387C166.729 17.1896 165.843 17.5334 165.646 16.9931C165.351 16.2564 166.089 15.6671 166.631 15.225C168.059 13.9972 170.323 14.1445 171.455 15.5688C171.8 16.0108 172.144 16.502 171.947 16.9931C171.75 17.4842 171.111 17.2387 170.717 17.2387C170.028 17.2878 169.388 17.2387 168.698 17.2387C168.206 17.2387 167.714 17.2878 167.271 17.2387Z" fill="white"/>
<path d="M133.015 23.2796C133.064 22.2974 133.015 21.266 133.015 20.2837V17.4843C133.015 15.176 132.424 13.1623 130.012 12.3274C127.551 11.4925 125.237 11.738 123.219 13.5552C122.579 14.1446 122.087 14.5866 122.924 15.4706C123.662 16.2073 124.105 16.2073 124.843 15.5197C125.976 14.4393 127.403 14.0464 128.929 14.8322C129.865 15.3233 130.209 16.2564 129.963 17.2387C129.766 18.1719 128.831 17.7298 128.24 17.779C126.96 17.8281 125.68 17.779 124.4 18.1719C122.874 18.663 121.841 19.6453 121.742 21.3151C121.644 23.0832 122.481 24.2619 124.154 24.8513C125.877 25.4897 127.6 25.3915 129.225 24.5075C129.471 24.3601 129.865 23.5743 130.258 24.4092C130.8 25.588 131.784 24.9986 132.523 24.8513C133.36 24.7039 133.015 23.8199 133.015 23.2796ZM129.914 20.824C129.815 22.3465 128.437 22.9358 126.96 22.985C125.877 22.985 124.696 22.6903 124.794 21.4625C124.942 19.5961 126.616 20.1364 127.895 19.9891C128.486 20.4802 130.012 19.2032 129.914 20.824Z" fill="white"/>
<path d="M78.8578 21.0697C79.9901 18.3685 81.073 16.0602 81.9099 13.7027C82.4022 12.2785 83.1898 12.082 84.4697 12.1802C85.3557 12.2293 85.5034 12.5731 85.2081 13.3098C83.0913 17.9756 81.073 22.6905 78.8578 27.3562C77.8241 29.5172 75.7566 30.2048 73.3937 29.7628C72.4092 29.5663 72.5076 28.977 72.4584 28.2894C72.4092 27.5527 72.7045 27.3071 73.4922 27.258C76.8396 27.0124 77.7256 25.3917 76.3965 22.2976C75.2151 19.5472 74.0337 16.7969 72.9015 13.9974C72.7045 13.4572 71.6708 12.5731 72.803 12.2785C73.6398 12.0329 74.969 11.5909 75.5597 13.0643C76.3965 15.3235 77.3318 17.5336 78.2671 19.7437C78.3656 20.0384 78.5133 20.333 78.8578 21.0697Z" fill="white"/>
<path d="M119.626 20.1364C119.626 21.2169 119.576 22.2482 119.626 23.3287C119.724 24.4583 119.478 24.9986 118.1 24.9986C116.721 24.9986 116.574 24.4092 116.623 23.2796C116.672 21.266 116.623 19.3015 116.623 17.2878C116.623 15.618 115.737 14.6357 114.112 14.4392C112.636 14.2428 111.257 15.4706 111.208 17.1405C111.11 19.2032 111.11 21.266 111.208 23.3287C111.257 24.5075 110.962 24.9986 109.682 24.9495C108.451 24.9495 108.254 24.4092 108.304 23.3779C108.353 20.1855 108.304 16.9931 108.304 13.8008C108.304 12.18 109.239 11.4925 110.666 12.3274C111.454 12.7694 111.799 12.5729 112.389 12.3274C116.377 10.854 119.478 12.8676 119.576 17.0914C119.675 18.1227 119.626 19.105 119.626 20.1364Z" fill="white"/>
<path d="M135.663 18.565C135.663 17.0425 135.663 15.4709 135.663 13.9484C135.663 12.1312 136.598 11.4436 138.124 12.4259C138.863 12.8679 139.158 12.5732 139.65 12.4259C143.687 10.8051 146.887 12.917 146.936 17.239C146.936 19.3017 146.887 21.3645 146.936 23.4272C146.985 24.4586 146.788 24.9497 145.508 24.9989C144.13 25.048 143.933 24.5077 143.982 23.3781C144.081 21.5118 144.032 19.6455 143.982 17.7792C143.933 15.7165 142.899 14.4886 141.275 14.4886C139.65 14.4886 138.469 15.7656 138.42 17.7792C138.371 19.7929 138.371 21.8065 138.42 23.771C138.469 24.8024 138.075 25.048 137.14 24.9989C136.303 24.9497 135.515 25.0971 135.565 23.8201C135.712 22.0521 135.663 20.284 135.663 18.565Z" fill="white"/>
<path d="M155.604 25.1949C152.651 25.1949 149.992 23.3778 149.106 20.7256C148.171 17.828 149.155 14.832 151.617 13.1131C153.98 11.4923 157.376 11.4432 159.542 13.1622C160.182 13.6533 161.413 14.1445 160.527 15.2741C159.788 16.2072 159.099 16.4528 157.967 15.3723C156.49 13.8989 154.078 14.2427 152.749 15.7652C151.42 17.2386 151.42 19.7925 152.798 21.2659C154.127 22.6902 156.293 22.8375 157.967 21.7079C158.459 21.3641 158.656 20.4801 159.591 20.9221C161.019 21.5606 161.167 22.2973 160.035 23.4269C158.755 24.6547 157.278 25.1949 155.604 25.1949Z" fill="white"/>
<path d="M93.381 19.6946C93.381 18.6141 93.381 17.5827 93.381 16.5022C93.381 15.6182 93.7256 14.5377 92.1504 14.6359C91.5104 14.685 91.5104 14.0466 91.5104 13.6046C91.5104 13.1134 91.3135 12.2785 92.0027 12.2785C94.021 12.2785 93.3318 10.8542 93.3318 9.87195C93.4303 6.58136 95.2024 4.96063 98.4514 5.25531C99.5343 5.35353 99.7805 5.74644 99.8297 6.77782C99.8789 7.85831 99.3374 7.90742 98.5006 7.95653C96.4823 8.10387 95.5962 9.72461 96.1869 11.6891C96.4331 12.475 97.0238 12.2294 97.5161 12.2294C98.4514 12.2294 99.1897 12.2294 99.1897 13.5554C99.1897 14.9797 98.3037 14.8815 97.4668 14.7833C96.2362 14.6359 96.1869 15.3235 96.2362 16.2076C96.2854 18.7614 96.1869 21.2662 96.2854 23.8201C96.3346 25.0479 95.7439 25.0479 94.8086 25.0971C93.8733 25.0971 93.2826 25.0479 93.381 23.8201C93.4795 22.3958 93.381 21.0207 93.381 19.6946Z" fill="white"/>
<path d="M69.4527 25.195C66.0068 25.195 64.53 23.7708 64.4808 20.5784C64.4808 19.2523 64.4808 17.9263 64.4808 16.6002C64.4808 15.618 64.7269 14.5375 63.0533 14.6848C62.1672 14.783 62.3149 13.9481 62.2656 13.3587C62.2656 12.8185 62.2656 12.1309 63.0533 12.2291C64.7269 12.4256 64.5793 11.296 64.4808 10.3137C64.3824 9.13501 64.8254 8.88945 65.9576 8.84033C67.1883 8.84033 67.5328 9.33146 67.3359 10.3628C67.0406 11.9345 67.7298 12.3765 69.2065 12.18C70.2403 12.0327 71.1756 12.0327 71.0771 13.6534C70.9787 15.1759 69.8957 14.7339 69.2065 14.6848C67.6805 14.5375 67.139 14.9795 67.2867 16.5511C67.4344 17.7789 67.3359 19.105 67.2867 20.3328C67.2375 21.8062 67.9759 22.5429 69.4527 22.592C70.2895 22.6412 71.5202 21.9536 71.471 23.8199C71.4217 25.6862 70.0926 24.9495 69.4527 25.195Z" fill="white"/>
<path d="M57.644 18.6629C57.644 16.944 57.6932 15.1759 57.644 13.4569C57.5948 12.3273 58.087 12.1309 59.0716 12.1309C60.0069 12.1309 60.5483 12.2291 60.5483 13.4078C60.4991 16.8457 60.4991 20.3328 60.5483 23.7707C60.5483 24.8021 60.1053 24.9985 59.2192 24.9494C58.4316 24.9003 57.5948 25.1459 57.644 23.8198C57.7424 22.1008 57.644 20.3819 57.644 18.6629Z" fill="white"/>
<path d="M104.454 18.6631C104.454 20.3821 104.404 22.101 104.454 23.8691C104.503 24.9496 103.912 25.0478 103.075 24.9987C102.238 24.9496 101.5 25.0969 101.5 23.82C101.549 20.3821 101.549 16.895 101.5 13.4571C101.5 12.2784 102.091 12.1802 102.977 12.1802C103.961 12.131 104.454 12.3766 104.404 13.5062C104.404 15.1761 104.454 16.895 104.454 18.6631Z" fill="white"/>
<path d="M102.978 9.38043C101.993 9.2822 101.205 8.79107 101.156 7.56324C101.156 6.33541 101.944 5.69694 103.027 5.64782C104.159 5.59871 104.947 6.33541 104.996 7.46501C104.996 8.69284 104.307 9.2822 102.978 9.38043Z" fill="white"/>
<path d="M60.9902 7.51425C60.9409 8.7912 60.1533 9.38055 59.0211 9.38055C57.9381 9.33144 57.1013 8.74208 57.1505 7.46514C57.1997 6.28642 57.9381 5.64795 59.0703 5.64795C60.301 5.69706 60.9409 6.43376 60.9902 7.51425Z" fill="white"/>
</svg>
