<svg width="50" height="50" viewBox="0 0 50 50" fill="none" xmlns="http://www.w3.org/2000/svg">
<rect width="50" height="50" rx="25" fill="#00B412" fill-opacity="0.2"/>
<path d="M32.8776 18.4307L32.5703 18.5703L32.4307 18.8776L32 19.8251L31.5693 18.8776L31.4297 18.5703L31.1224 18.4307L30.1749 18L31.1224 17.5693L31.4297 17.4297L31.5693 17.1224L32 16.1749L32.4307 17.1224L32.5703 17.4297L32.8776 17.5693L33.825 18L32.8776 18.4307ZM23.6807 22.8724L23.8203 23.1797L24.1276 23.3193L27.825 25L24.1276 26.6807L23.8203 26.8203L23.6807 27.1276L22 30.8251L20.3193 27.1276L20.1797 26.8203L19.8724 26.6807L16.1749 25L19.8724 23.3193L20.1797 23.1797L20.3193 22.8724L22 19.1749L23.6807 22.8724ZM31.1224 31.5693L31.4297 31.4297L31.5693 31.1224L32 30.1749L32.4307 31.1224L32.5703 31.4297L32.8776 31.5693L33.825 32L32.8776 32.4307L32.5703 32.5703L32.4307 32.8776L32 33.825L31.5693 32.8776L31.4297 32.5703L31.1224 32.4307L30.1749 32L31.1224 31.5693Z" stroke="#00B412" stroke-width="1.8"/>
</svg>
