<svg width="28" height="39" viewBox="0 0 28 39" fill="none" xmlns="http://www.w3.org/2000/svg">
<path d="M7.79167 15.1067V8.25C7.79167 5.72 9.845 3.66667 12.375 3.66667C14.905 3.66667 16.9583 5.72 16.9583 8.25V15.1067C19.1767 13.6217 20.625 11.11 20.625 8.25C20.625 3.685 16.94 0 12.375 0C7.81 0 4.125 3.685 4.125 8.25C4.125 11.11 5.57333 13.6217 7.79167 15.1067ZM25.8317 23.595L17.5083 19.4517C17.1967 19.3233 16.8667 19.25 16.5183 19.25H15.125V8.25C15.125 6.72833 13.8967 5.5 12.375 5.5C10.8533 5.5 9.625 6.72833 9.625 8.25V27.94L3.33667 26.62C3.19 26.6017 3.06167 26.565 2.89667 26.565C2.32833 26.565 1.815 26.8033 1.44833 27.17L0 28.6367L9.05667 37.6933C9.55167 38.1883 10.2483 38.5 11 38.5H23.4483C24.8233 38.5 25.8867 37.4917 26.0883 36.1533L27.4633 26.4917C27.4817 26.3633 27.5 26.235 27.5 26.125C27.5 24.9883 26.8033 23.9983 25.8317 23.595Z" fill="#4A4A4A"/>
</svg>
