<svg width="50" height="50" viewBox="0 0 50 50" fill="none" xmlns="http://www.w3.org/2000/svg">
<rect width="50" height="50" rx="25" fill="#F2994A" fill-opacity="0.2"/>
<g clip-path="url(#clip0_199_3650)">
<path d="M33.5692 24.2861H27.8549C27.4604 24.2861 27.1406 24.6059 27.1406 25.0004V33.5718C27.1406 33.9663 27.4604 34.2861 27.8549 34.2861H33.5692C33.9637 34.2861 34.2835 33.9663 34.2835 33.5718V25.0004C34.2835 24.6059 33.9637 24.2861 33.5692 24.2861Z" stroke="#F2994A" stroke-width="1.8" stroke-linecap="round" stroke-linejoin="round"/>
<path d="M33.5692 15.7144H27.8549C27.4604 15.7144 27.1406 16.0342 27.1406 16.4286V19.3001C27.1406 19.6946 27.4604 20.0144 27.8549 20.0144H33.5692C33.9637 20.0144 34.2835 19.6946 34.2835 19.3001V16.4286C34.2835 16.0342 33.9637 15.7144 33.5692 15.7144Z" stroke="#F2994A" stroke-width="1.8" stroke-linecap="round" stroke-linejoin="round"/>
<path d="M22.1473 15.7144H16.433C16.0385 15.7144 15.7188 16.0342 15.7188 16.4286V25.0001C15.7188 25.3946 16.0385 25.7144 16.433 25.7144H22.1473C22.5418 25.7144 22.8616 25.3946 22.8616 25.0001V16.4286C22.8616 16.0342 22.5418 15.7144 22.1473 15.7144Z" stroke="#F2994A" stroke-width="1.8" stroke-linecap="round" stroke-linejoin="round"/>
<path d="M22.1473 29.9858H16.433C16.0385 29.9858 15.7188 30.3056 15.7188 30.7001V33.5716C15.7188 33.966 16.0385 34.2858 16.433 34.2858H22.1473C22.5418 34.2858 22.8616 33.966 22.8616 33.5716V30.7001C22.8616 30.3056 22.5418 29.9858 22.1473 29.9858Z" stroke="#F2994A" stroke-width="1.8" stroke-linecap="round" stroke-linejoin="round"/>
</g>
<defs>
<clipPath id="clip0_199_3650">
<rect width="20" height="20" fill="white" transform="translate(15 15)"/>
</clipPath>
</defs>
</svg>
