<svg width="40" height="40" viewBox="0 0 40 40" fill="none" xmlns="http://www.w3.org/2000/svg">
<rect width="40" height="40" rx="20" fill="#F2994A" fill-opacity="0.2"/>
<path d="M27.9558 10.8062C25.246 9.93082 22.3296 9.93082 19.6198 10.8062C18.2971 11.2955 17.5691 12.0322 17.5691 12.8746V16.4386C17.055 16.3942 16.6188 16.3747 16.2076 16.3747C14.7907 16.3506 13.3805 16.5726 12.0395 17.0308C10.7252 17.534 10 18.2735 10 19.1103V27.0892C10 27.9232 10.7252 28.6655 12.0395 29.1576C14.7494 30.0324 17.6657 30.0324 20.3756 29.1576C21.4565 28.7461 22.1345 28.1873 22.3456 27.534C22.8212 27.5801 23.2988 27.6024 23.7766 27.6007C25.1935 27.6253 26.6038 27.4033 27.9447 26.9446C29.2617 26.4525 29.987 25.7158 29.987 24.8735V12.8634C30.0064 12.0322 29.2729 11.2983 27.9558 10.8062ZM22.4179 24.5871C22.8402 24.6288 23.2876 24.6483 23.7794 24.6483C25.1961 24.6738 26.6064 24.4527 27.9474 23.9949C28.2232 23.8933 28.4907 23.7706 28.7477 23.628V24.8929C28.7477 25.4128 26.861 26.3664 23.7822 26.3664C23.3276 26.3679 22.8732 26.3466 22.4207 26.3024L22.4179 24.5871ZM23.7794 23.3972C23.3248 23.3988 22.8704 23.3775 22.4179 23.3333V21.6207C22.8402 21.6624 23.2876 21.6819 23.7794 21.6819C25.1963 21.7065 26.6066 21.4845 27.9474 21.0258C28.2241 20.9264 28.4918 20.8037 28.7477 20.6588V21.9154C28.7449 22.4381 26.8582 23.4 23.7794 23.4V23.3972ZM23.7794 20.4364C23.3248 20.4388 22.8704 20.4184 22.4179 20.3753V19.1103C22.4174 18.9562 22.392 18.8032 22.3429 18.6572C22.8375 18.7016 23.3098 18.7239 23.7794 18.7239C25.1963 18.7485 26.6066 18.5265 27.9474 18.0678C28.2232 17.9661 28.4907 17.8434 28.7477 17.7008V18.9574C28.7449 19.4606 26.9916 20.4392 23.7794 20.4392V20.4364ZM28.7449 14.5788V15.9883C28.7449 16.4915 26.9916 17.4701 23.7794 17.4701C20.6979 17.4701 18.8139 16.5109 18.8139 15.9883V14.5788C19.07 14.7214 19.3366 14.8441 19.6114 14.9457C20.9526 15.403 22.3628 15.624 23.7794 15.5991C25.1961 15.6246 26.6064 15.4035 27.9474 14.9457C28.2222 14.8439 28.4888 14.7212 28.7449 14.5788ZM23.7794 14.3591C20.6979 14.3591 18.8139 13.3972 18.8139 12.8746C18.8139 12.3519 20.6979 11.3817 23.7794 11.3817C26.861 11.3817 28.7449 12.3408 28.7449 12.8634C28.7449 13.3861 26.8582 14.3591 23.7794 14.3591ZM21.1758 26.2051V27.1114C21.1758 27.6341 19.2891 28.5932 16.2103 28.5932C13.1316 28.5932 11.2448 27.6452 11.2448 27.1114V26.2051C11.5009 26.3477 11.7675 26.4704 12.0423 26.5721C14.7522 27.4469 17.6684 27.4469 20.3783 26.5721C20.653 26.4699 20.9195 26.3472 21.1758 26.2051ZM16.2103 25.9772C13.1316 25.9772 11.2448 25.0152 11.2448 24.4926V23.5974C11.5009 23.74 11.7675 23.8627 12.0423 23.9644C14.7522 24.8392 17.6684 24.8392 20.3783 23.9644C20.6532 23.8627 20.9198 23.74 21.1758 23.5974V24.5009C21.1758 25.0041 19.4225 25.9772 16.2103 25.9772ZM16.2103 23.3694C13.1316 23.3694 11.2448 22.4075 11.2448 21.8849V20.8145C11.5009 20.9571 11.7675 21.0798 12.0423 21.1815C14.7527 22.0535 17.668 22.0535 20.3783 21.1815C20.6532 21.0798 20.9198 20.9571 21.1758 20.8145V21.8932C21.1758 22.3964 19.4225 23.3778 16.2103 23.3778V23.3694ZM16.2103 20.5893C13.1316 20.5893 11.2448 19.6302 11.2448 19.1075C11.2448 18.5849 13.1316 17.6146 16.2103 17.6146C16.8351 17.6103 17.4593 17.6531 18.0776 17.7425C18.095 17.7462 18.113 17.7462 18.1304 17.7425C20.1171 18.0205 21.1869 18.7128 21.1869 19.0964C21.1758 19.6135 19.4225 20.5921 16.2103 20.5921V20.5893Z" fill="#F2994A"/>
</svg>
