<svg width="40" height="40" viewBox="0 0 40 40" fill="none" xmlns="http://www.w3.org/2000/svg">
<rect width="40" height="40" rx="20" fill="#A5EAF0"/>
<path d="M22.8739 10.6665H15.8472C13.3672 10.6665 12.8072 11.9065 12.5005 13.4399L11.3672 18.8398H27.3672L26.2339 13.4399C25.9005 11.9065 25.3539 10.6665 22.8739 10.6665Z" stroke="#3498DB" stroke-width="1.8" stroke-linecap="round" stroke-linejoin="round"/>
<path d="M29.3384 27.6536C29.4451 28.8269 28.5117 29.8403 27.3117 29.8403H25.4317C24.3517 29.8403 24.2051 29.3736 24.0051 28.8136L23.8051 28.2136C23.5251 27.4003 23.3384 26.8403 21.8984 26.8403H16.7784C15.3384 26.8403 15.1251 27.467 14.8717 28.2136L14.6717 28.8136C14.4851 29.3869 14.3384 29.8403 13.2451 29.8403H11.3651C10.1651 29.8403 9.2184 28.8269 9.3384 27.6536L9.8984 21.5602C10.0451 20.0536 10.3251 18.8269 12.9517 18.8269H25.7117C28.3384 18.8269 28.6184 20.0536 28.7651 21.5602L29.3384 27.6536Z" stroke="#3498DB" stroke-width="1.8" stroke-linecap="round" stroke-linejoin="round"/>
<path d="M11.3516 15.8398H10.3516" stroke="#3498DB" stroke-width="1.8" stroke-linecap="round" stroke-linejoin="round"/>
<path d="M28.3516 15.8396H27.3516" stroke="#3498DB" stroke-width="1.8" stroke-linecap="round" stroke-linejoin="round"/>
<path d="M13.3594 22.8396H16.3594" stroke="#3498DB" stroke-width="1.8" stroke-linecap="round" stroke-linejoin="round"/>
<path d="M22.3516 22.8401H25.3516" stroke="#3498DB" stroke-width="1.8" stroke-linecap="round" stroke-linejoin="round"/>
</svg>
