<svg width="37" height="36" viewBox="0 0 37 36" fill="none" xmlns="http://www.w3.org/2000/svg">
<rect x="0.5" width="36" height="36" rx="18" fill="#CEFBFF"/>
<path d="M12.5 21.9729C12.722 24.3543 14.7695 26.0443 17.8865 26.2629V28H19.451V26.2629C22.856 26.0071 24.968 24.2086 24.968 21.5486C24.968 19.2771 23.5475 17.9629 20.534 17.2229L19.451 16.9557V11.5243C21.134 11.6814 22.2695 12.5443 22.556 13.8329H24.761C24.512 11.5471 22.451 9.90714 19.451 9.72571V8H17.8865V9.76143C14.978 10.09 12.9815 11.8643 12.9815 14.27C12.9815 16.3471 14.4305 17.8171 16.973 18.4371L17.888 18.6686V24.4271C16.1645 24.1843 14.978 23.2843 14.6915 21.9729H12.5V21.9729ZM17.5865 16.4929C16.022 16.1171 15.1865 15.3143 15.1865 14.1843C15.1865 12.8357 16.2425 11.84 17.8865 11.5729V16.5657L17.5865 16.4943V16.4929ZM19.973 19.1671C21.9035 19.6286 22.751 20.3943 22.751 21.6943C22.751 23.2614 21.512 24.3057 19.451 24.4643V19.0429L19.973 19.1657V19.1671Z" fill="#00A5B4"/>
</svg>
